# xmcd
#
# Track frame offsets:
#	150
#	15675
#	35700
#	62175
#	82050
#	108150
#	127275
#	152100
#	171525
#	191850
#
# Disc length: 2810 seconds
#
# Revision: 0
# Processed by: cddbd v1.5.1PL0 Copyright (c) Steve Scherf et al.
# Submitted via: EasyCDDAExtractor 8.1.4.1
#
DISCID=940af80a
DTITLE=Various Artist - Da Vu Den
DYEAR=1992
DGENRE=
TTITLE0=Trung Hanh - Khuc hat yeu doi
TTITLE1=Lam Thuy Van - Gia tu tinh yeu
TTITLE2=Don Ho - Thoi
TTITLE3=Ngoc Huong - Khi co chang
TTITLE4=L Anh - S Lan - LT Van - Noi dau niem nho
TTITLE5=Ngoc Thanh - Cuoc tinh phoi pha
TTITLE6=Don Ho - Trai tim thu han
TTITLE7=Kieu Nga - Troi con lam mua mai
TTITLE8=Trung Hanh - Lam Thuy Van - Mua roi
TTITLE9=Lam Thuy Van - Tinh da bay xa
EXTD=
EXTT0=
EXTT1=
EXTT2=
EXTT3=
EXTT4=
EXTT5=
EXTT6=
EXTT7=
EXTT8=
EXTT9=
PLAYORDER=
